<svg width="39" height="36" viewBox="0 0 39 36" fill="none" xmlns="http://www.w3.org/2000/svg">
<path d="M38.0514 12.0381L35.3641 12.4157C33.0124 5.21038 26.2489 0.00118104 18.2582 0C8.31578 0.00118104 0.258647 8.0578 0.258057 17.9996C0.258647 27.942 8.31578 35.9992 18.2582 35.9998C18.7876 35.9998 19.3145 35.977 19.836 35.9314L19.4733 31.7563H19.4727C19.0741 31.7905 18.6695 31.8079 18.2582 31.8079C14.4379 31.8066 11.0001 30.2661 8.49383 27.764C5.99179 25.2577 4.45053 21.8192 4.45002 17.9996C4.45061 14.1799 5.99179 10.7414 8.49383 8.23577C11.0001 5.73366 14.4379 4.19314 18.2582 4.19188C22.0779 4.19314 25.5163 5.73366 28.022 8.23577C29.3684 9.58393 30.4233 11.209 31.1229 13.0116L28.827 13.3346L34.7502 21.9895L36.0737 17.9996H36.2572C36.2572 17.8377 36.238 17.6806 36.2332 17.5193L38.0514 12.0381Z" fill="#263A7D"/>
<path d="M29.7076 25.7192C29.4822 26.0538 29.2401 26.3792 28.9847 26.6963L32.2433 29.3321C32.573 28.9245 32.8865 28.5031 33.1821 28.0649L29.7089 25.7192H29.7076Z" fill="#4A64BC"/>
<path d="M23.7492 30.6733C23.079 30.9641 22.3807 31.2027 21.6607 31.3855L22.6893 35.4498C23.6311 35.2112 24.5428 34.8983 25.418 34.5182L23.7492 30.6739V30.6733Z" fill="#4A64BC"/>
<path d="M25.6986 29.6324L27.9621 33.1614C28.7737 32.6417 29.5398 32.0578 30.2544 31.4182L27.4597 28.2944C26.91 28.7854 26.322 29.2338 25.6986 29.6324Z" fill="#4A64BC"/>
<path d="M16.1913 17.7303C16.8555 16.9738 17.2577 16.1879 17.2577 15.1844C17.2577 13.485 16.0385 12.189 14.0321 12.189C12.009 12.189 10.8352 13.4545 10.7273 14.9057C10.7112 14.9986 10.7591 15.0759 10.8514 15.0915L12.5484 15.3684C12.6575 15.384 12.7181 15.3378 12.7181 15.245C12.8104 14.4422 13.2444 14.0101 13.9536 14.0101C14.6794 14.0101 15.0961 14.5203 15.0961 15.2144C15.0961 15.7539 14.8797 16.2016 14.4793 16.6662L10.7897 21.0494C10.7273 21.1267 10.7112 21.1723 10.7112 21.2652V22.7008C10.7112 22.7938 10.7735 22.8549 10.8658 22.8549H17.103C17.1954 22.8549 17.2577 22.7938 17.2577 22.7008V21.1723C17.2577 21.0806 17.1954 21.0188 17.103 21.0188H13.429V20.9876L16.1913 17.7303Z" fill="#4A3AFF"/>
<path d="M26.4617 21.3274C26.5528 21.3274 26.6146 21.2657 26.6146 21.1727V19.6148C26.6146 19.5219 26.5528 19.4596 26.4617 19.4596H25.7669L25.674 19.3666V17.0983C25.674 17.006 25.6122 16.9436 25.5194 16.9436H23.7294C23.6365 16.9436 23.5741 17.0059 23.5741 17.0983V19.3666L23.4818 19.4596H21.5533V19.4133L24.7005 12.5137C24.7317 12.4208 24.7005 12.3584 24.5938 12.3584H22.6318C22.5245 12.3584 22.4628 12.3895 22.4172 12.4826L19.2677 19.4133L19.2371 19.5991V21.1727C19.2371 21.2657 19.2988 21.3274 19.3918 21.3274H23.4818L23.5741 21.4203V22.7013C23.5741 22.7942 23.6365 22.8553 23.7294 22.8553H25.5194C25.6122 22.8553 25.674 22.7942 25.674 22.7013V21.4203L25.7669 21.3274H26.4617Z" fill="#4A3AFF"/>
</svg>
