<svg width="38" height="39" viewBox="0 0 38 39" fill="none" xmlns="http://www.w3.org/2000/svg">
<g clip-path="url(#clip0_13_148)">
<path fillRule="evenodd" clip-rule="evenodd" d="M11.4167 34.6768L4.65242 29.9153C7.17619 25.801 10.0709 24.8515 14.3832 24.8515H23.3582C24.6922 25.5628 24.264 26.7973 22.149 27.7235C23.9289 27.7731 26.234 27.3449 27.8552 26.5899C30.0722 25.5822 31.9364 24.6248 31.9364 24.6248C34.5772 23.556 34.6662 25.4703 33.3347 26.5899C26.6678 31.2376 27.3559 31.0947 20.9425 32.5064C18.8201 32.9735 12.5452 33.3108 11.4167 34.6768Z" fill="#4A3AFF"/>
<path fillRule="evenodd" clip-rule="evenodd" d="M0.147671 33.3751L2.78369 30.6366C2.88085 30.5357 3.03487 30.5214 3.13806 30.6036L10.4594 36.4379C10.5618 36.5195 10.5791 36.6679 10.4993 36.7811L9.21855 38.5982C9.13749 38.7133 8.98431 38.7514 8.86798 38.6855L0.191289 33.7726C0.122063 33.7334 0.0807011 33.6702 0.0719234 33.5902C0.0631457 33.5102 0.0893714 33.4357 0.147671 33.3751Z" fill="#4A3AFF"/>
<path fillRule="evenodd" clip-rule="evenodd" d="M2.49797 32.7075C2.73768 32.5062 3.09524 32.5373 3.29659 32.7769C3.49794 33.0167 3.46685 33.3742 3.22712 33.5756C2.98741 33.7769 2.62985 33.7458 2.4285 33.5061C2.22715 33.2664 2.25826 32.9089 2.49797 32.7075Z" fill="white"/>
<path fillRule="evenodd" clip-rule="evenodd" d="M19.8887 3.83984C28.1694 3.83984 34.8822 10.5527 34.8822 18.8334C34.8822 18.8945 34.8806 18.9553 34.8799 19.0162H4.89746C4.89674 18.9553 4.89515 18.8945 4.89515 18.8334C4.89515 10.5527 11.608 3.83984 19.8887 3.83984Z" fill="#263A7D"/>
<path d="M31.6675 14.6178C31.8493 15.0881 31.6154 15.6168 31.1451 15.7986C30.6748 15.9804 30.1461 15.7465 29.9643 15.2762C29.8671 15.0248 29.757 14.7695 29.6345 14.5111C29.5135 14.2557 29.3859 14.0097 29.2519 13.7735C28.4199 12.3062 27.2704 11.0416 25.8964 10.0724C24.5507 9.12306 22.9906 8.45834 21.3038 8.16571C20.8058 8.08075 20.4709 7.60814 20.5559 7.11015C20.6409 6.61214 21.1135 6.27732 21.6114 6.3623C23.5733 6.7026 25.3861 7.47457 26.9484 8.57665C28.5409 9.70001 29.8742 11.1677 30.8407 12.8718C31.002 13.1563 31.1512 13.4429 31.2877 13.731C31.4211 14.0126 31.5479 14.3083 31.6675 14.6178Z" fill="white"/>
<path fillRule="evenodd" clip-rule="evenodd" d="M3.06663 21.0278H36.7107C37.3644 21.0278 37.8992 21.5627 37.8992 22.2163V22.2164C37.8992 22.8701 37.3644 23.4049 36.7107 23.4049H3.06663C2.41295 23.4049 1.87814 22.8701 1.87814 22.2164V22.2163C1.87814 21.5627 2.41295 21.0278 3.06663 21.0278Z" fill="#263A7D"/>
<path fillRule="evenodd" clip-rule="evenodd" d="M19.8887 0C21.1005 0 22.0829 0.982376 22.0829 2.19419C22.0829 3.406 21.1005 4.38837 19.8887 4.38837C18.6769 4.38837 17.6945 3.406 17.6945 2.19419C17.6945 0.98238 18.6769 0 19.8887 0Z" fill="#263A7D"/>
</g>
<defs>
<clipPath id="clip0_13_148">
<rect width="37.829" height="38.7178" fill="white" transform="translate(0.0702515)"/>
</clipPath>
</defs>
</svg>
