<svg width="33" height="46" viewBox="0 0 33 46" fill="none" xmlns="http://www.w3.org/2000/svg">
<g clip-path="url(#clip0_13_98)">
<path d="M16.104 43.0136C21.6601 39.1744 29.368 30.9255 29.368 22.4343V9.92269C27.2425 9.35111 24.0393 8.4524 22.6196 7.8636C21.1128 7.23827 17.9714 5.44797 16.104 4.35938C14.2363 5.44808 11.0946 7.23858 9.589 7.86341C8.16897 8.45224 4.96704 9.35073 2.84007 9.92269V22.4343C2.84007 30.9255 10.5479 39.1745 16.104 43.0136Z" fill="#4A3AFF"/>
<path d="M20.1997 19.8138H20.1671V18.2621C20.1671 15.9907 18.3204 14.144 16.0483 14.144H15.7882C13.5161 14.144 11.6694 15.9907 11.6694 18.2621V19.8138H11.6368C10.7204 19.8138 9.96983 20.5646 9.96983 21.4808V27.9193C9.96983 28.8357 10.7204 29.5863 11.6368 29.5863H20.1997C21.1161 29.5863 21.8667 28.8357 21.8667 27.9193V21.4808C21.8667 20.5646 21.1161 19.8138 20.1997 19.8138ZM16.6151 24.5627C16.5344 24.6151 16.4848 24.7043 16.4848 24.8007V26.8954C16.4848 27.0512 16.3573 27.1787 16.2015 27.1787H15.635C15.4792 27.1787 15.3517 27.0512 15.3517 26.8954V24.8007C15.3517 24.7043 15.3036 24.6166 15.2229 24.5642C14.8744 24.3375 14.6435 23.9438 14.6435 23.4962C14.6435 22.7811 15.2327 22.2031 15.9536 22.2216C16.6335 22.24 17.193 22.8164 17.193 23.4962C17.193 23.9424 16.9635 24.3361 16.6151 24.5627ZM19.034 19.8092H12.8025V18.2621C12.8025 16.6165 14.142 15.2771 15.7882 15.2771H16.0483C17.6946 15.2771 19.034 16.6165 19.034 18.2621V19.8092Z" fill="white"/>
<path d="M16.104 45.9098C16.2228 45.9098 16.3417 45.8769 16.4478 45.8111C18.066 44.8174 19.8058 43.4959 21.479 41.9895C23.3832 40.2751 25.1049 38.4161 26.5963 36.4642C28.3043 34.2287 29.6477 31.9454 30.589 29.6775C31.6633 27.0894 32.208 24.5283 32.208 22.0652V7.87202C32.208 7.57376 32.0068 7.31286 31.7187 7.23753C31.0867 7.0734 25.4995 5.61426 23.7075 4.8711C21.9171 4.1281 16.9928 1.2213 16.4372 0.892295L16.4357 0.891389C16.2311 0.771222 15.9769 0.77123 15.7723 0.891412L15.7708 0.892295C15.2152 1.2213 10.2909 4.12811 8.50041 4.87115C6.70849 5.61426 1.12127 7.0734 0.490088 7.23733C0.201218 7.31286 3.8147e-06 7.57376 3.8147e-06 7.87202V22.0652C3.8147e-06 24.5283 0.544703 27.0894 1.61897 29.6775C2.56032 31.9454 3.90367 34.2287 5.61169 36.4642C7.10309 38.4161 8.8248 40.2751 10.729 41.9895C12.4022 43.4959 14.142 44.8174 15.7602 45.8111C15.8664 45.8769 15.9852 45.9098 16.104 45.9098ZM31.2093 8.13682V22.0652C31.2093 24.3962 30.6903 26.8285 29.6667 29.2946C28.7584 31.4828 27.4584 33.691 25.8028 35.8579C24.3487 37.7608 22.6692 39.5741 20.8108 41.2473C19.2437 42.6581 17.6206 43.8999 16.104 44.8492C14.5874 43.8999 12.9643 42.6581 11.3972 41.2473C9.53881 39.5741 7.85928 37.7608 6.40526 35.8579C4.74964 33.691 3.44964 31.4828 2.54137 29.2946C1.51772 26.8285 0.998701 24.3962 0.998701 22.0652V8.13681C2.45946 7.75467 7.18602 6.4974 8.88307 5.79362C10.6028 5.07994 14.8784 2.57883 16.104 1.85546C17.3296 2.57883 21.6051 5.07994 23.3248 5.79357C25.0217 6.4973 29.7473 7.75432 31.2093 8.13682Z" fill="#263A7D"/>
</g>
<defs>
<clipPath id="clip0_13_98">
<rect width="32.208" height="45.1085" fill="white" transform="matrix(-1 0 0 1 32.208 0.80127)"/>
</clipPath>
</defs>
</svg>
