<svg width="243" height="45" viewBox="0 0 243 45" fill="none" xmlns="http://www.w3.org/2000/svg">
<path d="M61.1676 18.9582C61.1676 18.1492 60.918 17.5037 60.4189 17.0217C59.9369 16.5397 59.1795 16.2987 58.1467 16.2987H54.2995V21.6435H58.1467C58.8352 21.6435 59.4033 21.5402 59.8508 21.3336C60.2984 21.1099 60.6254 20.8 60.832 20.4041C61.0557 19.991 61.1676 19.509 61.1676 18.9582ZM58.25 13.3811C59.7131 13.3811 60.918 13.6393 61.8648 14.1557C62.8287 14.6549 63.5431 15.3348 64.0078 16.1954C64.4898 17.0389 64.7308 17.9598 64.7308 18.9582C64.7308 19.6295 64.6103 20.3008 64.3693 20.9721C64.1283 21.6263 63.7496 22.2287 63.2332 22.7796C62.7168 23.3132 62.0455 23.7435 61.2193 24.0706C60.4102 24.3976 59.4205 24.5611 58.25 24.5611H54.2995V31.4551H50.8138V13.3811H58.25ZM60.2123 23.3992L65.0923 31.4551H61.1935L56.52 23.3992H60.2123ZM79.9452 16.2987H70.7275V20.8947H77.6214V23.7091H70.7275V28.5374H79.9452V31.4551H67.2418V13.3811H79.9452V16.2987ZM82.4343 13.3811H85.92V20.843H93.9242V13.3811H97.4099V31.4551H93.9242V23.7607H85.92V31.4551H82.4343V13.3811ZM108.663 16.2987H107.733L102.414 31.4551H98.8253L105.306 13.3811H111.064L117.545 31.4551H113.956L108.663 16.2987ZM102.75 24.3804H113.285V27.2981H102.75V24.3804ZM129.635 18.5967C129.635 17.8393 129.394 17.2713 128.912 16.8926C128.43 16.4967 127.75 16.2987 126.873 16.2987H122.457V20.8689H126.847C127.725 20.8689 128.405 20.6795 128.886 20.3008C129.386 19.9049 129.635 19.3369 129.635 18.5967ZM118.972 31.4551V13.3811H127.363C128.62 13.3811 129.678 13.5962 130.539 14.0266C131.4 14.4397 132.045 15.0077 132.475 15.7307C132.923 16.4364 133.147 17.2369 133.147 18.1319C133.147 18.9238 133 19.5951 132.708 20.1459C132.415 20.6967 132.011 21.1357 131.494 21.4627C130.995 21.7726 130.418 21.9877 129.764 22.1082V22.3148C130.556 22.4181 131.236 22.6418 131.804 22.9861C132.372 23.3132 132.811 23.7779 133.121 24.3804C133.431 24.9829 133.586 25.7144 133.586 26.5751C133.586 27.5218 133.353 28.3653 132.889 29.1055C132.424 29.8284 131.744 30.4051 130.849 30.8354C129.971 31.2485 128.912 31.4551 127.673 31.4551H118.972ZM122.457 28.5374H127.208C128.12 28.5374 128.826 28.3395 129.325 27.9436C129.842 27.5304 130.1 26.9366 130.1 26.162C130.1 25.3529 129.825 24.7419 129.274 24.3288C128.74 23.9156 128.026 23.7091 127.131 23.7091H122.457V28.5374ZM141.822 22.4181C141.822 21.0582 142.054 19.8189 142.519 18.7C142.984 17.5639 143.629 16.5914 144.456 15.7823C145.282 14.9561 146.246 14.3192 147.347 13.8716C148.466 13.4241 149.671 13.2003 150.962 13.2003C152.821 13.2003 154.465 13.6479 155.894 14.543C157.34 15.4208 158.424 16.686 159.147 18.3385L156.229 19.1906C155.851 18.4676 155.377 17.8824 154.809 17.4348C154.259 16.9873 153.656 16.6602 153.002 16.4536C152.348 16.2471 151.685 16.1438 151.014 16.1438C149.912 16.1438 148.931 16.4106 148.07 16.9442C147.21 17.4606 146.538 18.1922 146.056 19.1389C145.592 20.0857 145.359 21.1787 145.359 22.4181C145.359 23.6574 145.592 24.7505 146.056 25.6972C146.538 26.6267 147.21 27.3583 148.07 27.8919C148.931 28.4255 149.912 28.6923 151.014 28.6923C151.702 28.6923 152.382 28.5891 153.054 28.3825C153.742 28.1587 154.379 27.7886 154.964 27.2722C155.55 26.7558 156.049 26.0673 156.462 25.2066L159.328 26.0071C158.588 27.8833 157.486 29.2948 156.023 30.2415C154.56 31.1711 152.873 31.6358 150.962 31.6358C149.671 31.6358 148.466 31.412 147.347 30.9645C146.246 30.517 145.282 29.8801 144.456 29.0538C143.629 28.2276 142.984 27.255 142.519 26.1362C142.054 25.0001 141.822 23.7607 141.822 22.4181ZM174.428 16.2987H165.211V20.8947H172.105V23.7091H165.211V28.5374H174.428V31.4551H161.725V13.3811H174.428V16.2987ZM191.867 13.3811V31.4551H188.304L180.403 18.9065V31.4551H176.917V13.3811H180.455L188.381 25.9296V13.3811H191.867ZM193.98 13.3811H208.646V16.2987H203.069V31.4551H199.583V16.2987H193.98V13.3811ZM223.435 16.2987H214.217V20.8947H221.111V23.7091H214.217V28.5374H223.435V31.4551H210.732V13.3811H223.435V16.2987ZM236.278 18.9582C236.278 18.1492 236.028 17.5037 235.529 17.0217C235.047 16.5397 234.29 16.2987 233.257 16.2987H229.41V21.6435H233.257C233.945 21.6435 234.513 21.5402 234.961 21.3336C235.409 21.1099 235.736 20.8 235.942 20.4041C236.166 19.991 236.278 19.509 236.278 18.9582ZM233.36 13.3811C234.823 13.3811 236.028 13.6393 236.975 14.1557C237.939 14.6549 238.653 15.3348 239.118 16.1954C239.6 17.0389 239.841 17.9598 239.841 18.9582C239.841 19.6295 239.72 20.3008 239.479 20.9721C239.238 21.6263 238.86 22.2287 238.343 22.7796C237.827 23.3132 237.156 23.7435 236.329 24.0706C235.52 24.3976 234.531 24.5611 233.36 24.5611H229.41V31.4551H225.924V13.3811H233.36ZM235.322 23.3992L240.202 31.4551H236.304L231.63 23.3992H235.322Z" fill="white"/>
<g clip-path="url(#clip0_14_43)">
<path fill-rule="evenodd" clip-rule="evenodd" d="M14.3412 33.8557C13.0313 33.7935 12.1778 33.6913 12.1778 33.5761V19.0201C12.1778 18.8303 14.4946 18.6763 17.3518 18.6763C20.2089 18.6763 22.526 18.8304 22.526 19.0201V33.576C22.526 33.6913 21.6724 33.7933 20.3625 33.8557C20.4006 33.7704 20.4218 33.6756 20.4218 33.576V28.5986C20.4218 27.9425 19.8885 27.4092 19.2325 27.4092H15.4712C14.8152 27.4092 14.2819 27.9425 14.2819 28.5986V33.576C14.2819 33.6756 14.3031 33.7703 14.3412 33.8557ZM19.7119 26.9115H18.7531C18.2549 26.9115 17.8498 26.5063 17.8498 26.0083V21.1089C17.8498 20.6109 18.2549 20.2056 18.7531 20.2056H19.7119C20.21 20.2056 20.6152 20.6109 20.6152 21.1089V26.0083C20.6152 26.5063 20.21 26.9115 19.7119 26.9115ZM18.7531 20.8935C18.6362 20.8935 18.5375 20.9923 18.5375 21.1089V26.0083C18.5375 26.125 18.6362 26.2237 18.7531 26.2237H19.7119C19.8287 26.2237 19.9274 26.1251 19.9274 26.0083V21.1089C19.9274 20.9922 19.8287 20.8935 19.7119 20.8935H18.7531ZM15.9507 26.9115H14.9917C14.4937 26.9115 14.0885 26.5063 14.0885 26.0083V21.1089C14.0885 20.6109 14.4937 20.2056 14.9917 20.2056H15.9507C16.4487 20.2056 16.8539 20.6109 16.8539 21.1089V26.0083C16.8539 26.5063 16.4487 26.9115 15.9507 26.9115ZM14.9917 20.8935C14.8749 20.8935 14.7763 20.9923 14.7763 21.1089V26.0083C14.7763 26.125 14.875 26.2237 14.9917 26.2237H15.9507C16.0675 26.2237 16.1662 26.1251 16.1662 26.0083V21.1089C16.1662 20.9922 16.0674 20.8935 15.9507 20.8935H14.9917Z" fill="#F2C618"/>
<path fill-rule="evenodd" clip-rule="evenodd" d="M22.5259 33.9201C22.336 33.9201 22.1821 33.7661 22.1821 33.5762C22.1821 29.1313 22.1684 26.4719 22.1356 24.9479C22.1236 24.3928 21.8691 27.081 21.8407 24.0562C21.9413 24.1138 22.0579 24.1467 22.182 24.1467H32.1863V33.5762C32.1864 33.7661 22.7159 33.9201 22.5259 33.9201ZM29.3724 31.8705H28.4134C27.9154 31.8705 27.5102 31.4652 27.5102 30.9672V26.068C27.5102 25.5698 27.9154 25.1647 28.4134 25.1647H29.3724C29.8704 25.1647 30.2756 25.5698 30.2756 26.068V30.9672C30.2756 31.4652 29.8703 31.8705 29.3724 31.8705ZM28.4134 25.8525C28.2966 25.8525 28.198 25.951 28.198 26.0679V30.9672C28.198 31.084 28.2966 31.1828 28.4134 31.1828H29.3724C29.4891 31.1828 29.5878 31.084 29.5878 30.9672V26.0679C29.5878 25.9511 29.4891 25.8525 29.3724 25.8525H28.4134ZM25.6111 31.8705H24.6522C24.1541 31.8705 23.7489 31.4652 23.7489 30.9672V26.068C23.7489 25.5698 24.1541 25.1647 24.6522 25.1647H25.6111C26.1092 25.1647 26.5144 25.5698 26.5144 26.068V30.9672C26.5144 31.4652 26.1091 31.8705 25.6111 31.8705ZM24.6522 25.8525C24.5354 25.8525 24.4367 25.951 24.4367 26.0679V30.9672C24.4367 31.084 24.5353 31.1828 24.6522 31.1828H25.6111C25.7279 31.1828 25.8266 31.084 25.8266 30.9672V26.0679C25.8266 25.9511 25.7279 25.8525 25.6111 25.8525H24.6522Z" fill="#F2C618"/>
<path fill-rule="evenodd" clip-rule="evenodd" d="M22.8035 19.3639H11.9001C11.6118 19.3639 11.3945 19.0916 11.3945 18.7303V16.7751C11.3945 16.414 11.612 16.1416 11.9001 16.1416H22.8035C23.0919 16.1416 23.3092 16.414 23.3092 16.7751V18.7303C23.3092 19.0916 23.0919 19.3639 22.8035 19.3639Z" fill="#F2C618"/>
<path fill-rule="evenodd" clip-rule="evenodd" d="M32.4639 23.8029H22.182C21.9921 23.8029 21.8381 23.649 21.8381 23.459V20.9244C21.8381 20.7346 21.992 20.5806 22.182 20.5806H32.4639C32.7522 20.5806 32.9696 20.8529 32.9696 21.2142V23.1693C32.9696 23.5305 32.7522 23.8029 32.4639 23.8029Z" fill="#F2C618"/>
<path fill-rule="evenodd" clip-rule="evenodd" d="M18.1502 16.8294H16.5534C16.1681 16.8294 15.8547 16.5159 15.8547 16.1307V15.1337H14.8578C14.4724 15.1337 14.159 14.8202 14.159 14.435V12.8383C14.159 12.453 14.4724 12.1395 14.8578 12.1395H15.8547V11.1425C15.8547 10.7573 16.1681 10.4438 16.5535 10.4438H18.1502C18.5355 10.4438 18.849 10.7573 18.849 11.1425V12.1395H19.8459C20.2312 12.1395 20.5447 12.453 20.5447 12.8383V14.435C20.5447 14.8202 20.2312 15.1337 19.8459 15.1337H18.849V16.1307C18.849 16.5159 18.5355 16.8294 18.1502 16.8294Z" fill="#F2C618"/>
<path fill-rule="evenodd" clip-rule="evenodd" d="M32.4639 21.2681C32.2434 21.2681 23.3247 21.1139 23.3247 20.9242V20.027C23.3247 19.3425 23.8815 18.7856 24.5659 18.7856H31.5665C32.251 18.7856 32.8078 19.3425 32.8078 20.027V20.9242C32.8078 21.1141 32.6539 21.2681 32.4639 21.2681Z" fill="#F2C618"/>
<path fill-rule="evenodd" clip-rule="evenodd" d="M19.7339 33.9202H14.9697C14.7797 33.9202 14.6257 33.7662 14.6257 33.5763V28.5988C14.6257 28.1327 15.005 27.7534 15.4712 27.7534H19.2324C19.6986 27.7534 20.0779 28.1327 20.0779 28.5988V33.5763C20.0779 33.7663 19.9239 33.9202 19.7339 33.9202ZM18.383 31.4494C18.1931 31.4494 18.0391 31.2954 18.0391 31.1055V30.5683C18.0391 30.3783 18.193 30.2242 18.383 30.2242C18.5729 30.2242 18.7269 30.3784 18.7269 30.5683V31.1055C18.7269 31.2954 18.5729 31.4494 18.383 31.4494Z" fill="#F2C618"/>
<path fill-rule="evenodd" clip-rule="evenodd" d="M33.262 33.9201H11.1019C10.9119 33.9201 10.758 33.7662 10.758 33.5762C10.758 33.3862 10.912 33.2324 11.1019 33.2324H33.262C33.452 33.2324 33.6059 33.3863 33.6059 33.5762C33.6059 33.7661 33.452 33.9201 33.262 33.9201Z" fill="#F2C618"/>
<path fill-rule="evenodd" clip-rule="evenodd" d="M22.182 2.386C31.5048 2.386 39.2025 9.89773 40.3658 19.621C39.3181 8.57657 31.5764 0 22.182 0C12.7875 0 5.04599 8.57645 3.99825 19.621C5.16162 9.89773 12.8593 2.386 22.182 2.386Z" fill="white"/>
<path fill-rule="evenodd" clip-rule="evenodd" d="M40.3658 24.7432C39.2025 34.4663 31.5048 41.9782 22.182 41.9782C12.8592 41.9782 5.16162 34.4663 3.99825 24.7432C5.04599 35.7876 12.7876 44.3642 22.182 44.3642C31.5763 44.3642 39.3181 35.7876 40.3658 24.7432Z" fill="white"/>
<path fill-rule="evenodd" clip-rule="evenodd" d="M41.9781 22.1823C41.9781 31.5051 34.4664 39.2028 24.7431 40.3661C35.7875 39.3184 44.3641 31.5767 44.3641 22.1823C44.3641 12.7878 35.7875 5.04613 24.7431 3.99854C34.4663 5.16188 41.9781 12.8596 41.9781 22.1823Z" fill="white"/>
<path fill-rule="evenodd" clip-rule="evenodd" d="M19.621 40.3661C9.89785 39.2026 2.386 31.5049 2.386 22.1823C2.386 12.8596 9.89773 5.16175 19.621 3.99854C8.57657 5.04625 3.8147e-05 12.7878 3.8147e-05 22.1823C3.8147e-05 31.5767 8.57657 39.3184 19.621 40.3661Z" fill="white"/>
<path fill-rule="evenodd" clip-rule="evenodd" d="M30.2699 7.80371C30.0704 7.80371 29.9088 7.85327 29.9088 7.91456C29.9088 7.97577 30.0703 8.0252 30.2699 8.0252C30.4692 8.0252 30.6311 7.97577 30.6311 7.91456C30.6311 7.85327 30.4694 7.80371 30.2699 7.80371Z" fill="#F2C618"/>
<path fill-rule="evenodd" clip-rule="evenodd" d="M27.8735 7.10449C27.6741 7.10449 27.5123 7.15401 27.5123 7.21522L27.5125 7.21796C27.6088 7.25231 27.705 7.2876 27.8005 7.32382C27.8242 7.32526 27.8485 7.32598 27.8736 7.32598C28.073 7.32598 28.2347 7.27643 28.2347 7.21522C28.2347 7.15401 28.0731 7.10449 27.8736 7.10449H27.8735Z" fill="#F2C618"/>
<path fill-rule="evenodd" clip-rule="evenodd" d="M23.4098 5.93213C23.2102 5.93213 23.0485 5.98165 23.0485 6.04286C23.0485 6.10406 23.2102 6.15362 23.4098 6.15362C23.6091 6.15362 23.7708 6.10407 23.7708 6.04286C23.7708 5.98165 23.6091 5.93213 23.4098 5.93213Z" fill="#F2C618"/>
<path fill-rule="evenodd" clip-rule="evenodd" d="M25.4476 6.56689C25.3544 6.56689 25.2696 6.57508 25.2055 6.58861C25.3849 6.6232 25.5635 6.65992 25.7406 6.70044C25.7835 6.68654 25.8087 6.66965 25.8087 6.65113C25.8087 6.60468 25.647 6.5669 25.4477 6.5669L25.4476 6.56689Z" fill="#F2C618"/>
<path fill-rule="evenodd" clip-rule="evenodd" d="M29.0978 6.646C28.8984 6.646 28.7368 6.68378 28.7368 6.73026C28.7368 6.77683 28.8984 6.81461 29.0978 6.81461C29.2973 6.81461 29.459 6.77683 29.459 6.73026C29.459 6.68378 29.2973 6.646 29.0978 6.646Z" fill="#F2C618"/>
<path fill-rule="evenodd" clip-rule="evenodd" d="M27.2758 6.12793C27.0764 6.12793 26.9148 6.16559 26.9148 6.21219C26.9148 6.25877 27.0763 6.29643 27.2758 6.29643C27.4753 6.29643 27.637 6.25877 27.637 6.21219C27.637 6.16559 27.4753 6.12793 27.2758 6.12793Z" fill="#F2C618"/>
<path fill-rule="evenodd" clip-rule="evenodd" d="M25.3182 5.32324C25.1187 5.32324 24.9569 5.37292 24.9569 5.43409C24.9569 5.49518 25.1187 5.54486 25.3182 5.54486C25.5176 5.54486 25.6792 5.49518 25.6792 5.43409C25.6792 5.37292 25.5177 5.32324 25.3182 5.32324Z" fill="#F2C618"/>
<path fill-rule="evenodd" clip-rule="evenodd" d="M27.3237 5.31836C27.1243 5.31836 26.9626 5.36791 26.9626 5.42922C26.9626 5.4903 27.1243 5.53986 27.3237 5.53986C27.5231 5.53986 27.6848 5.4903 27.6848 5.42922C27.6848 5.36792 27.5231 5.31836 27.3237 5.31836Z" fill="#F2C618"/>
<path fill-rule="evenodd" clip-rule="evenodd" d="M35.229 9.54248C35.0296 9.54248 34.8679 9.59204 34.8679 9.65324C34.8679 9.71433 35.0296 9.76397 35.229 9.76397C35.4286 9.76397 35.5902 9.71433 35.5902 9.65324C35.5902 9.59204 35.4286 9.54248 35.229 9.54248Z" fill="#F2C618"/>
<path fill-rule="evenodd" clip-rule="evenodd" d="M32.833 8.84277C32.6335 8.84277 32.4717 8.89245 32.4717 8.95366C32.4717 9.01471 32.6336 9.06438 32.833 9.06438C33.0323 9.06438 33.1941 9.01471 33.1941 8.95366C33.1941 8.89245 33.0323 8.84277 32.833 8.84277Z" fill="#F2C618"/>
<path fill-rule="evenodd" clip-rule="evenodd" d="M30.4068 8.30518C30.2188 8.30518 30.0642 8.3387 30.0472 8.38159C30.0886 8.40523 30.1297 8.42923 30.1708 8.45324C30.234 8.46607 30.3166 8.4738 30.4069 8.4738C30.6064 8.4738 30.7681 8.43601 30.7681 8.38944C30.7681 8.34284 30.6064 8.30518 30.4069 8.30518H30.4068Z" fill="#F2C618"/>
<path fill-rule="evenodd" clip-rule="evenodd" d="M34.057 8.38428C33.8576 8.38428 33.696 8.42194 33.696 8.46851C33.696 8.51512 33.8578 8.5529 34.057 8.5529C34.2565 8.5529 34.4183 8.51511 34.4183 8.46851C34.4183 8.42194 34.2565 8.38428 34.057 8.38428Z" fill="#F2C618"/>
<path fill-rule="evenodd" clip-rule="evenodd" d="M32.2353 7.86621C32.0358 7.86621 31.8742 7.90387 31.8742 7.95044C31.8742 7.99702 32.0359 8.03471 32.2353 8.03471C32.4347 8.03471 32.5964 7.99702 32.5964 7.95044C32.5964 7.90387 32.4346 7.86621 32.2353 7.86621Z" fill="#F2C618"/>
<path fill-rule="evenodd" clip-rule="evenodd" d="M30.2776 7.06152C30.0782 7.06152 29.9164 7.1112 29.9164 7.17241C29.9164 7.23361 30.0782 7.28314 30.2776 7.28314C30.477 7.28314 30.6387 7.23361 30.6387 7.17241C30.6387 7.1112 30.4771 7.06152 30.2776 7.06152Z" fill="#F2C618"/>
<path fill-rule="evenodd" clip-rule="evenodd" d="M32.283 7.05664C32.0835 7.05664 31.9219 7.1062 31.9219 7.1674C31.9219 7.22861 32.0835 7.27825 32.283 7.27825C32.4825 7.27825 32.6442 7.22857 32.6442 7.1674C32.6442 7.10623 32.4824 7.05664 32.283 7.05664Z" fill="#F2C618"/>
<path fill-rule="evenodd" clip-rule="evenodd" d="M33.0917 9.96729C32.8922 9.96729 32.7304 10.017 32.7304 10.0782C32.7304 10.1392 32.8922 10.1889 33.0917 10.1889C33.2911 10.1889 33.4527 10.1395 33.4527 10.0782C33.4527 10.017 33.2912 9.96729 33.0917 9.96729Z" fill="#F2C618"/>
<path fill-rule="evenodd" clip-rule="evenodd" d="M35.0493 11.7554C34.8499 11.7554 34.6881 11.8049 34.6881 11.8661C34.6881 11.9273 34.8499 11.9769 35.0493 11.9769C35.2487 11.9769 35.4104 11.9274 35.4104 11.8661C35.4104 11.8049 35.2487 11.7554 35.0493 11.7554Z" fill="#F2C618"/>
<path fill-rule="evenodd" clip-rule="evenodd" d="M39.2416 14.7905C39.0422 14.7905 38.8805 14.8401 38.8805 14.9013C38.8805 14.9625 39.0421 15.012 39.2416 15.012C39.4411 15.012 39.6027 14.9625 39.6027 14.9013C39.6027 14.8401 39.441 14.7905 39.2416 14.7905Z" fill="#F2C618"/>
<path fill-rule="evenodd" clip-rule="evenodd" d="M36.8454 14.0913C36.646 14.0913 36.4844 14.141 36.4844 14.2022C36.4844 14.2633 36.6458 14.3129 36.8454 14.3129C37.0449 14.3129 37.2065 14.2633 37.2065 14.2022C37.2065 14.141 37.0449 14.0913 36.8454 14.0913Z" fill="#F2C618"/>
<path fill-rule="evenodd" clip-rule="evenodd" d="M36.9153 16.2212H36.9065C36.9358 16.2939 36.9652 16.3669 36.9936 16.4401C37.1554 16.4291 37.2764 16.3849 37.2764 16.332C37.2764 16.2709 37.1148 16.2212 36.9153 16.2212Z" fill="#F2C618"/>
<path fill-rule="evenodd" clip-rule="evenodd" d="M38.0696 13.6328C37.8702 13.6328 37.7085 13.6706 37.7085 13.7171C37.7085 13.7637 37.8702 13.8014 38.0696 13.8014C38.2691 13.8014 38.4307 13.7637 38.4307 13.7171C38.4307 13.6704 38.2691 13.6328 38.0696 13.6328Z" fill="#F2C618"/>
<path fill-rule="evenodd" clip-rule="evenodd" d="M36.2476 13.1143C36.0482 13.1143 35.8864 13.152 35.8864 13.1986C35.8864 13.2452 36.0481 13.2829 36.2476 13.2829C36.4471 13.2829 36.6087 13.2451 36.6087 13.1986C36.6087 13.152 36.447 13.1143 36.2476 13.1143Z" fill="#F2C618"/>
<path fill-rule="evenodd" clip-rule="evenodd" d="M36.2956 12.3052C36.0961 12.3052 35.9343 12.3547 35.9343 12.4159C35.9343 12.4771 36.0962 12.5267 36.2956 12.5267C36.495 12.5267 36.6566 12.4771 36.6566 12.4159C36.6566 12.3547 36.4951 12.3052 36.2956 12.3052Z" fill="#F2C618"/>
<path fill-rule="evenodd" clip-rule="evenodd" d="M37.1041 15.2158C36.9047 15.2158 36.743 15.2654 36.743 15.3266C36.743 15.3878 36.9045 15.4373 37.1041 15.4373C37.3036 15.4373 37.4652 15.3878 37.4652 15.3266C37.4652 15.2654 37.3036 15.2158 37.1041 15.2158Z" fill="#F2C618"/>
<path fill-rule="evenodd" clip-rule="evenodd" d="M39.0618 17.0039C38.8623 17.0039 38.7007 17.0536 38.7007 17.1147C38.7007 17.1759 38.8624 17.2255 39.0618 17.2255C39.2613 17.2255 39.4229 17.176 39.4229 17.1147C39.4229 17.0536 39.2613 17.0039 39.0618 17.0039Z" fill="#F2C618"/>
<path fill-rule="evenodd" clip-rule="evenodd" d="M40.3164 19.7471C40.1169 19.7471 39.9552 19.7967 39.9552 19.858C39.9552 19.919 40.1169 19.9687 40.3164 19.9687C40.5159 19.9687 40.6775 19.919 40.6775 19.858C40.6775 19.7967 40.5158 19.7471 40.3164 19.7471Z" fill="#F2C618"/>
<path fill-rule="evenodd" clip-rule="evenodd" d="M37.9201 19.048C37.8613 19.048 37.8058 19.0522 37.7566 19.06C37.77 19.1272 37.7828 19.195 37.7956 19.2627C37.8343 19.2671 37.8763 19.2695 37.9201 19.2695C38.1195 19.2695 38.2811 19.2198 38.2811 19.1587C38.2811 19.0975 38.1194 19.0479 37.9201 19.0479V19.048Z" fill="#F2C618"/>
<path fill-rule="evenodd" clip-rule="evenodd" d="M38.0449 21.3983C38.2183 21.3902 38.3512 21.3441 38.3512 21.2886C38.3512 21.2318 38.2115 21.1851 38.0318 21.1787C38.0364 21.2518 38.0413 21.3248 38.0449 21.3983Z" fill="#F2C618"/>
<path fill-rule="evenodd" clip-rule="evenodd" d="M39.1444 18.5894C38.9449 18.5894 38.7831 18.6271 38.7831 18.6738C38.7831 18.7204 38.945 18.758 39.1444 18.758C39.3438 18.758 39.5054 18.7202 39.5054 18.6738C39.5054 18.6271 39.3439 18.5894 39.1444 18.5894Z" fill="#F2C618"/>
<path fill-rule="evenodd" clip-rule="evenodd" d="M37.5655 18.2178C37.638 18.2023 37.6834 18.1802 37.6834 18.1555C37.6834 18.1269 37.6228 18.1018 37.5301 18.0864C37.5417 18.1302 37.5541 18.1737 37.5655 18.2178Z" fill="#F2C618"/>
<path fill-rule="evenodd" clip-rule="evenodd" d="M37.3702 17.2622C37.3415 17.2622 37.3138 17.2633 37.2872 17.2652C37.311 17.3378 37.3349 17.4105 37.3576 17.4837H37.3703C37.5697 17.4837 37.7314 17.4341 37.7314 17.3729C37.7314 17.3118 37.5697 17.2622 37.3703 17.2622H37.3702Z" fill="#F2C618"/>
<path fill-rule="evenodd" clip-rule="evenodd" d="M38.1787 20.1725C38.0878 20.1725 38.0047 20.1827 37.9413 20.1997C37.9484 20.2568 37.9545 20.3141 37.961 20.3715C38.0215 20.3855 38.0969 20.3939 38.1788 20.3939C38.3782 20.3939 38.5399 20.3443 38.5399 20.2831C38.5399 20.2218 38.3782 20.1724 38.1788 20.1724L38.1787 20.1725Z" fill="#F2C618"/>
<path fill-rule="evenodd" clip-rule="evenodd" d="M40.1364 21.9609C39.937 21.9609 39.7754 22.0105 39.7754 22.0717C39.7754 22.1328 39.937 22.1824 40.1364 22.1824C40.3359 22.1824 40.4976 22.1328 40.4976 22.0717C40.4976 22.0105 40.3358 21.9609 40.1364 21.9609Z" fill="#F2C618"/>
<path fill-rule="evenodd" clip-rule="evenodd" d="M14.0942 7.80371C14.2936 7.80371 14.4553 7.85327 14.4553 7.91456C14.4553 7.97577 14.2936 8.0252 14.0942 8.0252C13.8948 8.0252 13.7331 7.97577 13.7331 7.91456C13.7331 7.85327 13.8948 7.80371 14.0942 7.80371Z" fill="#F2C618"/>
<path fill-rule="evenodd" clip-rule="evenodd" d="M16.4905 7.10449C16.69 7.10449 16.8516 7.15401 16.8516 7.21522L16.8515 7.21796C16.7552 7.25231 16.6591 7.2876 16.5635 7.32374C16.54 7.32526 16.5156 7.32599 16.4905 7.32599C16.291 7.32599 16.1294 7.27643 16.1294 7.21522C16.1294 7.15401 16.291 7.10449 16.4905 7.10449Z" fill="#F2C618"/>
<path fill-rule="evenodd" clip-rule="evenodd" d="M20.9544 5.93213C21.1539 5.93213 21.3156 5.98165 21.3156 6.04286C21.3156 6.10406 21.1538 6.15362 20.9544 6.15362C20.755 6.15362 20.5933 6.10407 20.5933 6.04286C20.5933 5.98165 20.755 5.93213 20.9544 5.93213Z" fill="#F2C618"/>
<path fill-rule="evenodd" clip-rule="evenodd" d="M18.9164 6.56689C19.0096 6.56689 19.0946 6.57508 19.1586 6.58861C18.9793 6.6232 18.8007 6.65992 18.6235 6.70044C18.5806 6.68654 18.5553 6.66965 18.5553 6.65113C18.5553 6.60468 18.717 6.5669 18.9166 6.5669L18.9164 6.56689Z" fill="#F2C618"/>
<path fill-rule="evenodd" clip-rule="evenodd" d="M15.2662 6.646C15.4657 6.646 15.6273 6.68378 15.6273 6.73026C15.6273 6.77683 15.4657 6.81461 15.2662 6.81461C15.0667 6.81461 14.9051 6.77683 14.9051 6.73026C14.9051 6.68378 15.0668 6.646 15.2662 6.646Z" fill="#F2C618"/>
<path fill-rule="evenodd" clip-rule="evenodd" d="M17.0882 6.12793C17.2877 6.12793 17.4494 6.16559 17.4494 6.21219C17.4494 6.25877 17.2877 6.29643 17.0882 6.29643C16.8888 6.29643 16.7271 6.25877 16.7271 6.21219C16.7271 6.16559 16.8888 6.12793 17.0882 6.12793Z" fill="#F2C618"/>
<path fill-rule="evenodd" clip-rule="evenodd" d="M19.0458 5.32324C19.2452 5.32324 19.407 5.37292 19.407 5.43409C19.407 5.49518 19.2452 5.54486 19.0458 5.54486C18.8465 5.54486 18.6848 5.49518 18.6848 5.43409C18.6848 5.37292 18.8463 5.32324 19.0458 5.32324Z" fill="#F2C618"/>
<path fill-rule="evenodd" clip-rule="evenodd" d="M17.0405 5.31836C17.24 5.31836 17.4017 5.36791 17.4017 5.42922C17.4017 5.4903 17.2399 5.53986 17.0405 5.53986C16.8411 5.53986 16.6794 5.4903 16.6794 5.42922C16.6794 5.36792 16.841 5.31836 17.0405 5.31836Z" fill="#F2C618"/>
<path fill-rule="evenodd" clip-rule="evenodd" d="M9.13496 9.54248C9.33446 9.54248 9.49608 9.59204 9.49608 9.65324C9.49608 9.71433 9.33446 9.76397 9.13496 9.76397C8.93546 9.76397 8.77383 9.71433 8.77383 9.65324C8.77383 9.59204 8.93556 9.54248 9.13496 9.54248Z" fill="#F2C618"/>
<path fill-rule="evenodd" clip-rule="evenodd" d="M11.5312 8.84277C11.7307 8.84277 11.8923 8.89245 11.8923 8.95366C11.8923 9.01471 11.7307 9.06438 11.5312 9.06438C11.3316 9.06438 11.17 9.01471 11.17 8.95366C11.17 8.89245 11.3317 8.84277 11.5312 8.84277Z" fill="#F2C618"/>
<path fill-rule="evenodd" clip-rule="evenodd" d="M13.9572 8.30518C14.1453 8.30518 14.2998 8.3387 14.3168 8.38159C14.2755 8.40523 14.2344 8.42936 14.1935 8.45324C14.1302 8.46607 14.0476 8.4738 13.9573 8.4738C13.7578 8.4738 13.5962 8.43601 13.5962 8.38944C13.5962 8.34284 13.7578 8.30518 13.9573 8.30518H13.9572Z" fill="#F2C618"/>
<path fill-rule="evenodd" clip-rule="evenodd" d="M10.3068 8.38428C10.5064 8.38428 10.6679 8.42194 10.6679 8.46851C10.6679 8.51512 10.5064 8.5529 10.3068 8.5529C10.1073 8.5529 9.9457 8.51511 9.9457 8.46851C9.9457 8.42194 10.1073 8.38428 10.3068 8.38428Z" fill="#F2C618"/>
<path fill-rule="evenodd" clip-rule="evenodd" d="M12.1289 7.86621C12.3282 7.86621 12.49 7.90387 12.49 7.95044C12.49 7.99702 12.3282 8.03471 12.1289 8.03471C11.9293 8.03471 11.7677 7.99702 11.7677 7.95044C11.7677 7.90387 11.9295 7.86621 12.1289 7.86621Z" fill="#F2C618"/>
<path fill-rule="evenodd" clip-rule="evenodd" d="M14.0866 7.06152C14.286 7.06152 14.4476 7.1112 14.4476 7.17241C14.4476 7.23361 14.2861 7.28314 14.0866 7.28314C13.887 7.28314 13.7254 7.23361 13.7254 7.17241C13.7254 7.1112 13.8871 7.06152 14.0866 7.06152Z" fill="#F2C618"/>
<path fill-rule="evenodd" clip-rule="evenodd" d="M12.0811 7.05664C12.2805 7.05664 12.4421 7.1062 12.4421 7.1674C12.4421 7.22861 12.2804 7.27825 12.0811 7.27825C11.8816 7.27825 11.7198 7.22857 11.7198 7.1674C11.7198 7.10623 11.8817 7.05664 12.0811 7.05664Z" fill="#F2C618"/>
<path fill-rule="evenodd" clip-rule="evenodd" d="M11.2724 9.96729C11.472 9.96729 11.6336 10.017 11.6336 10.0782C11.6336 10.1392 11.472 10.1889 11.2724 10.1889C11.0731 10.1889 10.9113 10.1395 10.9113 10.0782C10.9113 10.017 11.0729 9.96729 11.2724 9.96729Z" fill="#F2C618"/>
<path fill-rule="evenodd" clip-rule="evenodd" d="M9.31473 11.7554C9.51426 11.7554 9.67597 11.8049 9.67597 11.8661C9.67597 11.9273 9.51426 11.9769 9.31473 11.9769C9.11532 11.9769 8.95373 11.9274 8.95373 11.8661C8.95373 11.8049 9.1152 11.7554 9.31473 11.7554Z" fill="#F2C618"/>
<path fill-rule="evenodd" clip-rule="evenodd" d="M5.12241 14.7905C5.32194 14.7905 5.48356 14.8401 5.48356 14.9013C5.48356 14.9625 5.32193 15.012 5.12241 15.012C4.92288 15.012 4.76128 14.9625 4.76128 14.9013C4.76128 14.8401 4.92303 14.7905 5.12241 14.7905Z" fill="#F2C618"/>
<path fill-rule="evenodd" clip-rule="evenodd" d="M7.51877 14.0913C7.71817 14.0913 7.87989 14.141 7.87989 14.2022C7.87989 14.2633 7.71817 14.3129 7.51877 14.3129C7.31924 14.3129 7.15765 14.2633 7.15765 14.2022C7.15765 14.141 7.31936 14.0913 7.51877 14.0913Z" fill="#F2C618"/>
<path fill-rule="evenodd" clip-rule="evenodd" d="M7.44875 16.2212H7.45755C7.42807 16.2939 7.39883 16.3669 7.37045 16.4401C7.20862 16.4291 7.08752 16.3849 7.08752 16.332C7.08752 16.2709 7.24926 16.2212 7.44864 16.2212H7.44875Z" fill="#F2C618"/>
<path fill-rule="evenodd" clip-rule="evenodd" d="M6.29447 13.6328C6.49384 13.6328 6.65559 13.6706 6.65559 13.7171C6.65559 13.7637 6.49384 13.8014 6.29447 13.8014C6.09509 13.8014 5.93334 13.7637 5.93334 13.7171C5.93334 13.6704 6.09506 13.6328 6.29447 13.6328Z" fill="#F2C618"/>
<path fill-rule="evenodd" clip-rule="evenodd" d="M8.11644 13.1143C8.31585 13.1143 8.47756 13.152 8.47756 13.1986C8.47756 13.2452 8.31585 13.2829 8.11644 13.2829C7.91703 13.2829 7.75532 13.2451 7.75532 13.1986C7.75532 13.152 7.91706 13.1143 8.11644 13.1143Z" fill="#F2C618"/>
<path fill-rule="evenodd" clip-rule="evenodd" d="M8.06869 12.3052C8.2681 12.3052 8.42981 12.3547 8.42981 12.4159C8.42981 12.4771 8.2681 12.5267 8.06869 12.5267C7.86916 12.5267 7.70757 12.4771 7.70757 12.4159C7.70757 12.3547 7.86916 12.3052 8.06869 12.3052Z" fill="#F2C618"/>
<path fill-rule="evenodd" clip-rule="evenodd" d="M7.26004 15.2158C7.45944 15.2158 7.62104 15.2654 7.62104 15.3266C7.62104 15.3878 7.45944 15.4373 7.26004 15.4373C7.06051 15.4373 6.8988 15.3878 6.8988 15.3266C6.8988 15.2654 7.06051 15.2158 7.26004 15.2158Z" fill="#F2C618"/>
<path fill-rule="evenodd" clip-rule="evenodd" d="M5.30233 17.0039C5.50171 17.0039 5.66345 17.0536 5.66345 17.1147C5.66345 17.1759 5.50171 17.2255 5.30233 17.2255C5.10295 17.2255 4.94118 17.176 4.94118 17.1147C4.94118 17.0536 5.10293 17.0039 5.30233 17.0039Z" fill="#F2C618"/>
<path fill-rule="evenodd" clip-rule="evenodd" d="M4.04782 19.7471C4.24723 19.7471 4.40895 19.7967 4.40895 19.858C4.40895 19.919 4.24723 19.9687 4.04782 19.9687C3.84842 19.9687 3.68658 19.919 3.68658 19.858C3.68658 19.7967 3.84833 19.7471 4.04782 19.7471Z" fill="#F2C618"/>
<path fill-rule="evenodd" clip-rule="evenodd" d="M6.44406 19.048C6.50287 19.048 6.55838 19.0522 6.60745 19.06C6.59413 19.1272 6.5812 19.195 6.5686 19.2627C6.52985 19.2671 6.48777 19.2695 6.44406 19.2695C6.24466 19.2695 6.08294 19.2198 6.08294 19.1587C6.08294 19.0975 6.24465 19.0479 6.44406 19.0479V19.048Z" fill="#F2C618"/>
<path fill-rule="evenodd" clip-rule="evenodd" d="M6.31914 21.3983C6.14577 21.3902 6.01293 21.3441 6.01293 21.2886C6.01293 21.2318 6.15244 21.1851 6.33235 21.1787C6.32772 21.2518 6.32262 21.3248 6.31914 21.3983Z" fill="#F2C618"/>
<path fill-rule="evenodd" clip-rule="evenodd" d="M5.21976 18.5894C5.41926 18.5894 5.58089 18.6271 5.58089 18.6738C5.58089 18.7204 5.41926 18.758 5.21976 18.758C5.02027 18.758 4.85864 18.7202 4.85864 18.6738C4.85864 18.6271 5.02035 18.5894 5.21976 18.5894Z" fill="#F2C618"/>
<path fill-rule="evenodd" clip-rule="evenodd" d="M6.79861 18.2178C6.72612 18.2023 6.68061 18.1802 6.68061 18.1555C6.68061 18.1269 6.74121 18.1018 6.83402 18.0864C6.82237 18.1304 6.8099 18.1738 6.79861 18.2178Z" fill="#F2C618"/>
<path fill-rule="evenodd" clip-rule="evenodd" d="M6.99398 17.2622C7.02261 17.2622 7.05029 17.2633 7.07703 17.2652C7.05327 17.3378 7.02927 17.4105 7.0067 17.4837H6.99398C6.79445 17.4837 6.63286 17.4341 6.63286 17.3729C6.63286 17.3118 6.79445 17.2622 6.99398 17.2622Z" fill="#F2C618"/>
<path fill-rule="evenodd" clip-rule="evenodd" d="M6.18533 20.1725C6.27623 20.1725 6.35931 20.1827 6.42277 20.1997C6.4155 20.2568 6.40968 20.3141 6.40303 20.3715C6.34255 20.3855 6.26708 20.3939 6.18522 20.3939C5.98581 20.3939 5.8241 20.3443 5.8241 20.2831C5.8241 20.2218 5.98581 20.1724 6.18522 20.1724L6.18533 20.1725Z" fill="#F2C618"/>
<path fill-rule="evenodd" clip-rule="evenodd" d="M4.2276 21.9609C4.42713 21.9609 4.58872 22.0105 4.58872 22.0717C4.58872 22.1328 4.42713 22.1824 4.2276 22.1824C4.02822 22.1824 3.86648 22.1328 3.86648 22.0717C3.86648 22.0105 4.02822 21.9609 4.2276 21.9609Z" fill="#F2C618"/>
<path fill-rule="evenodd" clip-rule="evenodd" d="M30.2699 36.5604C30.0704 36.5604 29.9088 36.5109 29.9088 36.4496C29.9088 36.3884 30.0703 36.3389 30.2699 36.3389C30.4692 36.3389 30.6311 36.3883 30.6311 36.4496C30.6311 36.5109 30.4694 36.5604 30.2699 36.5604Z" fill="#F2C618"/>
<path fill-rule="evenodd" clip-rule="evenodd" d="M27.8735 37.2601C27.6741 37.2601 27.5123 37.2104 27.5123 37.1493L27.5125 37.1466C27.6088 37.1121 27.705 37.077 27.8005 37.0408C27.8242 37.0394 27.8485 37.0386 27.8736 37.0386C28.073 37.0386 28.2347 37.0883 28.2347 37.1493C28.2347 37.2105 28.0731 37.2602 27.8736 37.2602L27.8735 37.2601Z" fill="#F2C618"/>
<path fill-rule="evenodd" clip-rule="evenodd" d="M23.4098 38.4326C23.2102 38.4326 23.0485 38.3829 23.0485 38.3218C23.0485 38.2606 23.2102 38.2109 23.4098 38.2109C23.6091 38.2109 23.7708 38.2606 23.7708 38.3218C23.7708 38.3829 23.6091 38.4326 23.4098 38.4326Z" fill="#F2C618"/>
<path fill-rule="evenodd" clip-rule="evenodd" d="M25.4476 37.7975C25.3544 37.7975 25.2696 37.7893 25.2055 37.7758C25.3849 37.7412 25.5635 37.7046 25.7406 37.6641C25.7835 37.6778 25.8087 37.6949 25.8087 37.7133C25.8087 37.7599 25.647 37.7977 25.4477 37.7977L25.4476 37.7975Z" fill="#F2C618"/>
<path fill-rule="evenodd" clip-rule="evenodd" d="M29.0978 37.7184C28.8984 37.7184 28.7368 37.6806 28.7368 37.6342C28.7368 37.5876 28.8984 37.5498 29.0978 37.5498C29.2973 37.5498 29.459 37.5876 29.459 37.6342C29.459 37.6806 29.2973 37.7184 29.0978 37.7184Z" fill="#F2C618"/>
<path fill-rule="evenodd" clip-rule="evenodd" d="M27.2758 38.2367C27.0764 38.2367 26.9148 38.199 26.9148 38.1525C26.9148 38.1059 27.0763 38.0684 27.2758 38.0684C27.4753 38.0684 27.637 38.106 27.637 38.1525C27.637 38.1992 27.4753 38.2367 27.2758 38.2367Z" fill="#F2C618"/>
<path fill-rule="evenodd" clip-rule="evenodd" d="M25.3182 39.0413C25.1187 39.0413 24.9569 38.9918 24.9569 38.9306C24.9569 38.8694 25.1187 38.8198 25.3182 38.8198C25.5176 38.8198 25.6792 38.8694 25.6792 38.9306C25.6792 38.9918 25.5177 39.0413 25.3182 39.0413Z" fill="#F2C618"/>
<path fill-rule="evenodd" clip-rule="evenodd" d="M27.3237 39.0462C27.1243 39.0462 26.9626 38.9968 26.9626 38.9355C26.9626 38.8743 27.1243 38.8247 27.3237 38.8247C27.5231 38.8247 27.6848 38.8741 27.6848 38.9355C27.6848 38.9968 27.5231 39.0462 27.3237 39.0462Z" fill="#F2C618"/>
<path fill-rule="evenodd" clip-rule="evenodd" d="M35.229 34.8222C35.0296 34.8222 34.8679 34.7725 34.8679 34.7113C34.8679 34.6502 35.0296 34.6006 35.229 34.6006C35.4286 34.6006 35.5902 34.6502 35.5902 34.7113C35.5902 34.7725 35.4286 34.8222 35.229 34.8222Z" fill="#F2C618"/>
<path fill-rule="evenodd" clip-rule="evenodd" d="M32.833 35.5219C32.6335 35.5219 32.4717 35.4722 32.4717 35.4111C32.4717 35.35 32.6336 35.3003 32.833 35.3003C33.0323 35.3003 33.1941 35.35 33.1941 35.4111C33.1941 35.4722 33.0323 35.5219 32.833 35.5219Z" fill="#F2C618"/>
<path fill-rule="evenodd" clip-rule="evenodd" d="M30.4068 36.0592C30.2188 36.0592 30.0642 36.0256 30.0472 35.9828C30.0886 35.9593 30.1297 35.9352 30.1708 35.9112C30.234 35.8984 30.3166 35.8906 30.4069 35.8906C30.6064 35.8906 30.7681 35.9284 30.7681 35.975C30.7681 36.0216 30.6064 36.0592 30.4069 36.0592H30.4068Z" fill="#F2C618"/>
<path fill-rule="evenodd" clip-rule="evenodd" d="M34.057 35.9801C33.8576 35.9801 33.696 35.9424 33.696 35.8959C33.696 35.8492 33.8578 35.8115 34.057 35.8115C34.2565 35.8115 34.4183 35.8493 34.4183 35.8959C34.4183 35.9425 34.2565 35.9801 34.057 35.9801Z" fill="#F2C618"/>
<path fill-rule="evenodd" clip-rule="evenodd" d="M32.2353 36.4982C32.0358 36.4982 31.8742 36.4604 31.8742 36.4139C31.8742 36.3673 32.0359 36.3296 32.2353 36.3296C32.4347 36.3296 32.5964 36.3674 32.5964 36.4139C32.5964 36.4604 32.4346 36.4982 32.2353 36.4982Z" fill="#F2C618"/>
<path fill-rule="evenodd" clip-rule="evenodd" d="M30.2776 37.3025C30.0782 37.3025 29.9164 37.253 29.9164 37.1918C29.9164 37.1306 30.0782 37.0811 30.2776 37.0811C30.477 37.0811 30.6387 37.1306 30.6387 37.1918C30.6387 37.253 30.4771 37.3025 30.2776 37.3025Z" fill="#F2C618"/>
<path fill-rule="evenodd" clip-rule="evenodd" d="M32.283 37.308C32.0835 37.308 31.9219 37.2584 31.9219 37.1971C31.9219 37.1361 32.0835 37.0864 32.283 37.0864C32.4825 37.0864 32.6442 37.1361 32.6442 37.1971C32.6442 37.2584 32.4824 37.308 32.283 37.308Z" fill="#F2C618"/>
<path fill-rule="evenodd" clip-rule="evenodd" d="M33.0917 34.3974C32.8922 34.3974 32.7304 34.3477 32.7304 34.2865C32.7304 34.2255 32.8922 34.1758 33.0917 34.1758C33.2911 34.1758 33.4527 34.2252 33.4527 34.2865C33.4527 34.3477 33.2912 34.3974 33.0917 34.3974Z" fill="#F2C618"/>
<path fill-rule="evenodd" clip-rule="evenodd" d="M35.0493 32.6087C34.8499 32.6087 34.6881 32.5591 34.6881 32.4979C34.6881 32.4368 34.8499 32.3872 35.0493 32.3872C35.2487 32.3872 35.4104 32.4366 35.4104 32.4979C35.4104 32.5591 35.2487 32.6087 35.0493 32.6087Z" fill="#F2C618"/>
<path fill-rule="evenodd" clip-rule="evenodd" d="M39.2416 29.5737C39.0422 29.5737 38.8805 29.524 38.8805 29.4628C38.8805 29.4017 39.0421 29.3521 39.2416 29.3521C39.4411 29.3521 39.6027 29.4017 39.6027 29.4628C39.6027 29.524 39.441 29.5737 39.2416 29.5737Z" fill="#F2C618"/>
<path fill-rule="evenodd" clip-rule="evenodd" d="M36.8454 30.2734C36.646 30.2734 36.4844 30.2237 36.4844 30.1626C36.4844 30.1014 36.6458 30.0518 36.8454 30.0518C37.0449 30.0518 37.2065 30.1014 37.2065 30.1626C37.2065 30.2237 37.0449 30.2734 36.8454 30.2734Z" fill="#F2C618"/>
<path fill-rule="evenodd" clip-rule="evenodd" d="M36.9153 28.1432H36.9065C36.9358 28.0706 36.9652 27.9975 36.9936 27.9243C37.1554 27.9352 37.2764 27.9794 37.2764 28.0324C37.2764 28.0935 37.1148 28.1432 36.9153 28.1432Z" fill="#F2C618"/>
<path fill-rule="evenodd" clip-rule="evenodd" d="M38.0696 30.7315C37.8702 30.7315 37.7085 30.6938 37.7085 30.6473C37.7085 30.6006 37.8702 30.563 38.0696 30.563C38.2691 30.563 38.4307 30.6006 38.4307 30.6473C38.4307 30.6939 38.2691 30.7315 38.0696 30.7315Z" fill="#F2C618"/>
<path fill-rule="evenodd" clip-rule="evenodd" d="M36.2476 31.25C36.0482 31.25 35.8864 31.2124 35.8864 31.1657C35.8864 31.1191 36.0481 31.0815 36.2476 31.0815C36.4471 31.0815 36.6087 31.1192 36.6087 31.1657C36.6087 31.2124 36.447 31.25 36.2476 31.25Z" fill="#F2C618"/>
<path fill-rule="evenodd" clip-rule="evenodd" d="M36.2956 32.0594C36.0961 32.0594 35.9343 32.0099 35.9343 31.9487C35.9343 31.8876 36.0962 31.8379 36.2956 31.8379C36.495 31.8379 36.6566 31.8876 36.6566 31.9487C36.6566 32.0099 36.4951 32.0594 36.2956 32.0594Z" fill="#F2C618"/>
<path fill-rule="evenodd" clip-rule="evenodd" d="M37.1041 29.1489C36.9047 29.1489 36.743 29.0992 36.743 29.038C36.743 28.9769 36.9045 28.9272 37.1041 28.9272C37.3036 28.9272 37.4652 28.9769 37.4652 29.038C37.4652 29.0992 37.3036 29.1489 37.1041 29.1489Z" fill="#F2C618"/>
<path fill-rule="evenodd" clip-rule="evenodd" d="M39.0618 27.3602C38.8623 27.3602 38.7007 27.3106 38.7007 27.2494C38.7007 27.1882 38.8624 27.1387 39.0618 27.1387C39.2613 27.1387 39.4229 27.1881 39.4229 27.2494C39.4229 27.3106 39.2613 27.3602 39.0618 27.3602Z" fill="#F2C618"/>
<path fill-rule="evenodd" clip-rule="evenodd" d="M40.3164 24.6171C40.1169 24.6171 39.9552 24.5674 39.9552 24.5064C39.9552 24.4452 40.1169 24.3955 40.3164 24.3955C40.5159 24.3955 40.6775 24.4452 40.6775 24.5064C40.6775 24.5674 40.5158 24.6171 40.3164 24.6171Z" fill="#F2C618"/>
<path fill-rule="evenodd" clip-rule="evenodd" d="M37.9201 25.3167C37.8613 25.3167 37.8058 25.3124 37.7566 25.3047C37.77 25.2375 37.7828 25.1697 37.7956 25.102C37.8343 25.0976 37.8763 25.0952 37.9201 25.0952C38.1195 25.0952 38.2811 25.1449 38.2811 25.2061C38.2811 25.2672 38.1194 25.3168 37.9201 25.3168V25.3167Z" fill="#F2C618"/>
<path fill-rule="evenodd" clip-rule="evenodd" d="M38.0449 22.9663C38.2183 22.9744 38.3512 23.0205 38.3512 23.076C38.3512 23.1328 38.2115 23.1796 38.0318 23.1859C38.0364 23.113 38.0413 23.0399 38.0449 22.9664V22.9663Z" fill="#F2C618"/>
<path fill-rule="evenodd" clip-rule="evenodd" d="M39.1444 25.7751C38.9449 25.7751 38.7831 25.7373 38.7831 25.6907C38.7831 25.644 38.945 25.6064 39.1444 25.6064C39.3438 25.6064 39.5054 25.6443 39.5054 25.6907C39.5054 25.7373 39.3439 25.7751 39.1444 25.7751Z" fill="#F2C618"/>
<path fill-rule="evenodd" clip-rule="evenodd" d="M37.5655 26.147C37.638 26.1624 37.6834 26.1846 37.6834 26.2094C37.6834 26.2378 37.6228 26.263 37.5301 26.2783C37.5417 26.2346 37.5541 26.1911 37.5655 26.147Z" fill="#F2C618"/>
<path fill-rule="evenodd" clip-rule="evenodd" d="M37.3702 27.1025C37.3415 27.1025 37.3138 27.1014 37.2872 27.0995C37.311 27.0268 37.3349 26.954 37.3576 26.8809H37.3703C37.5697 26.8809 37.7314 26.9305 37.7314 26.9916C37.7314 27.0528 37.5697 27.1025 37.3703 27.1025L37.3702 27.1025Z" fill="#F2C618"/>
<path fill-rule="evenodd" clip-rule="evenodd" d="M38.1787 24.1922C38.0878 24.1922 38.0047 24.1818 37.9413 24.1649C37.9484 24.1078 37.9545 24.0504 37.961 23.993C38.0215 23.9791 38.0969 23.9707 38.1788 23.9707C38.3782 23.9707 38.5399 24.0204 38.5399 24.0815C38.5399 24.1428 38.3782 24.1923 38.1788 24.1923L38.1787 24.1922Z" fill="#F2C618"/>
<path fill-rule="evenodd" clip-rule="evenodd" d="M40.1364 22.4037C39.937 22.4037 39.7754 22.3541 39.7754 22.2929C39.7754 22.2318 39.937 22.1821 40.1364 22.1821C40.3359 22.1821 40.4976 22.2318 40.4976 22.2929C40.4976 22.3541 40.3358 22.4037 40.1364 22.4037Z" fill="#F2C618"/>
<path fill-rule="evenodd" clip-rule="evenodd" d="M14.0942 36.5604C14.2936 36.5604 14.4553 36.5109 14.4553 36.4496C14.4553 36.3884 14.2936 36.3389 14.0942 36.3389C13.8948 36.3389 13.7331 36.3883 13.7331 36.4496C13.7331 36.5109 13.8948 36.5604 14.0942 36.5604Z" fill="#F2C618"/>
<path fill-rule="evenodd" clip-rule="evenodd" d="M16.4905 37.2602C16.69 37.2602 16.8516 37.2105 16.8516 37.1495L16.8515 37.1467C16.7552 37.1123 16.6591 37.0771 16.5635 37.0409C16.54 37.0394 16.5156 37.0386 16.4905 37.0386C16.291 37.0386 16.1294 37.0882 16.1294 37.1495C16.1294 37.2105 16.291 37.2602 16.4905 37.2602Z" fill="#F2C618"/>
<path fill-rule="evenodd" clip-rule="evenodd" d="M20.9544 38.4326C21.1539 38.4326 21.3156 38.3829 21.3156 38.3218C21.3156 38.2606 21.1538 38.2109 20.9544 38.2109C20.755 38.2109 20.5933 38.2606 20.5933 38.3218C20.5933 38.3829 20.755 38.4326 20.9544 38.4326Z" fill="#F2C618"/>
<path fill-rule="evenodd" clip-rule="evenodd" d="M18.9164 37.7975C19.0096 37.7975 19.0946 37.7893 19.1586 37.7758C18.9793 37.7412 18.8007 37.7045 18.6235 37.6641C18.5806 37.6778 18.5553 37.6949 18.5553 37.7133C18.5553 37.7599 18.717 37.7977 18.9166 37.7977L18.9164 37.7975Z" fill="#F2C618"/>
<path fill-rule="evenodd" clip-rule="evenodd" d="M15.2662 37.7184C15.4657 37.7184 15.6273 37.6806 15.6273 37.6342C15.6273 37.5876 15.4657 37.5498 15.2662 37.5498C15.0667 37.5498 14.9051 37.5876 14.9051 37.6342C14.9051 37.6806 15.0668 37.7184 15.2662 37.7184Z" fill="#F2C618"/>
<path fill-rule="evenodd" clip-rule="evenodd" d="M17.0882 38.2367C17.2877 38.2367 17.4494 38.199 17.4494 38.1525C17.4494 38.1059 17.2877 38.0684 17.0882 38.0684C16.8888 38.0684 16.7271 38.106 16.7271 38.1525C16.7271 38.1992 16.8888 38.2367 17.0882 38.2367Z" fill="#F2C618"/>
<path fill-rule="evenodd" clip-rule="evenodd" d="M19.0458 39.0413C19.2452 39.0413 19.407 38.9918 19.407 38.9306C19.407 38.8694 19.2452 38.8198 19.0458 38.8198C18.8465 38.8198 18.6848 38.8694 18.6848 38.9306C18.6848 38.9918 18.8463 39.0413 19.0458 39.0413Z" fill="#F2C618"/>
<path fill-rule="evenodd" clip-rule="evenodd" d="M17.0405 39.0462C17.24 39.0462 17.4017 38.9968 17.4017 38.9355C17.4017 38.8743 17.2399 38.8247 17.0405 38.8247C16.8411 38.8247 16.6794 38.8741 16.6794 38.9355C16.6794 38.9968 16.841 39.0462 17.0405 39.0462Z" fill="#F2C618"/>
<path fill-rule="evenodd" clip-rule="evenodd" d="M9.13496 34.8222C9.33446 34.8222 9.49608 34.7725 9.49608 34.7113C9.49608 34.6502 9.33446 34.6006 9.13496 34.6006C8.93546 34.6006 8.77383 34.6502 8.77383 34.7113C8.77383 34.7725 8.93556 34.8222 9.13496 34.8222Z" fill="#F2C618"/>
<path fill-rule="evenodd" clip-rule="evenodd" d="M11.5312 35.5219C11.7307 35.5219 11.8923 35.4722 11.8923 35.4111C11.8923 35.35 11.7307 35.3003 11.5312 35.3003C11.3316 35.3003 11.17 35.35 11.17 35.4111C11.17 35.4722 11.3317 35.5219 11.5312 35.5219Z" fill="#F2C618"/>
<path fill-rule="evenodd" clip-rule="evenodd" d="M13.9572 36.0592C14.1453 36.0592 14.2998 36.0256 14.3168 35.9828C14.2755 35.9593 14.2344 35.9352 14.1935 35.9112C14.1302 35.8984 14.0476 35.8906 13.9573 35.8906C13.7578 35.8906 13.5962 35.9284 13.5962 35.975C13.5962 36.0216 13.7578 36.0592 13.9573 36.0592H13.9572Z" fill="#F2C618"/>
<path fill-rule="evenodd" clip-rule="evenodd" d="M10.3068 35.9801C10.5064 35.9801 10.6679 35.9424 10.6679 35.8959C10.6679 35.8492 10.5064 35.8115 10.3068 35.8115C10.1073 35.8115 9.9457 35.8493 9.9457 35.8959C9.9457 35.9425 10.1073 35.9801 10.3068 35.9801Z" fill="#F2C618"/>
<path fill-rule="evenodd" clip-rule="evenodd" d="M12.1289 36.4982C12.3282 36.4982 12.49 36.4604 12.49 36.4139C12.49 36.3673 12.3282 36.3296 12.1289 36.3296C11.9293 36.3296 11.7677 36.3674 11.7677 36.4139C11.7677 36.4604 11.9295 36.4982 12.1289 36.4982Z" fill="#F2C618"/>
<path fill-rule="evenodd" clip-rule="evenodd" d="M14.0866 37.3025C14.286 37.3025 14.4476 37.253 14.4476 37.1918C14.4476 37.1306 14.2861 37.0811 14.0866 37.0811C13.887 37.0811 13.7254 37.1306 13.7254 37.1918C13.7254 37.253 13.8871 37.3025 14.0866 37.3025Z" fill="#F2C618"/>
<path fill-rule="evenodd" clip-rule="evenodd" d="M12.0811 37.308C12.2805 37.308 12.4421 37.2584 12.4421 37.1971C12.4421 37.1361 12.2804 37.0864 12.0811 37.0864C11.8816 37.0864 11.7198 37.1361 11.7198 37.1971C11.7198 37.2584 11.8817 37.308 12.0811 37.308Z" fill="#F2C618"/>
<path fill-rule="evenodd" clip-rule="evenodd" d="M11.2724 34.3974C11.472 34.3974 11.6336 34.3477 11.6336 34.2865C11.6336 34.2255 11.472 34.1758 11.2724 34.1758C11.0731 34.1758 10.9113 34.2252 10.9113 34.2865C10.9113 34.3477 11.0729 34.3974 11.2724 34.3974Z" fill="#F2C618"/>
<path fill-rule="evenodd" clip-rule="evenodd" d="M9.31473 32.6087C9.51426 32.6087 9.67597 32.5591 9.67597 32.4979C9.67597 32.4368 9.51426 32.3872 9.31473 32.3872C9.11532 32.3872 8.95373 32.4366 8.95373 32.4979C8.95373 32.5591 9.1152 32.6087 9.31473 32.6087Z" fill="#F2C618"/>
<path fill-rule="evenodd" clip-rule="evenodd" d="M5.12241 29.5737C5.32194 29.5737 5.48356 29.524 5.48356 29.4628C5.48356 29.4017 5.32193 29.3521 5.12241 29.3521C4.92288 29.3521 4.76128 29.4017 4.76128 29.4628C4.76128 29.524 4.92303 29.5737 5.12241 29.5737Z" fill="#F2C618"/>
<path fill-rule="evenodd" clip-rule="evenodd" d="M7.51877 30.2734C7.71817 30.2734 7.87989 30.2237 7.87989 30.1626C7.87989 30.1014 7.71817 30.0518 7.51877 30.0518C7.31924 30.0518 7.15765 30.1014 7.15765 30.1626C7.15765 30.2237 7.31936 30.2734 7.51877 30.2734Z" fill="#F2C618"/>
<path fill-rule="evenodd" clip-rule="evenodd" d="M7.44875 28.1432H7.45755C7.42807 28.0706 7.39883 27.9975 7.37045 27.9243C7.20862 27.9352 7.08752 27.9794 7.08752 28.0324C7.08752 28.0935 7.24926 28.1432 7.44864 28.1432L7.44875 28.1432Z" fill="#F2C618"/>
<path fill-rule="evenodd" clip-rule="evenodd" d="M6.29447 30.7315C6.49384 30.7315 6.65559 30.6938 6.65559 30.6473C6.65559 30.6006 6.49384 30.563 6.29447 30.563C6.09509 30.563 5.93334 30.6006 5.93334 30.6473C5.93334 30.6939 6.09506 30.7315 6.29447 30.7315Z" fill="#F2C618"/>
<path fill-rule="evenodd" clip-rule="evenodd" d="M8.11644 31.25C8.31585 31.25 8.47756 31.2124 8.47756 31.1657C8.47756 31.1191 8.31585 31.0815 8.11644 31.0815C7.91703 31.0815 7.75532 31.1192 7.75532 31.1657C7.75532 31.2124 7.91706 31.25 8.11644 31.25Z" fill="#F2C618"/>
<path fill-rule="evenodd" clip-rule="evenodd" d="M8.06869 32.0594C8.2681 32.0594 8.42981 32.0099 8.42981 31.9487C8.42981 31.8876 8.2681 31.8379 8.06869 31.8379C7.86916 31.8379 7.70757 31.8876 7.70757 31.9487C7.70757 32.0099 7.86916 32.0594 8.06869 32.0594Z" fill="#F2C618"/>
<path fill-rule="evenodd" clip-rule="evenodd" d="M7.26004 29.1489C7.45944 29.1489 7.62104 29.0992 7.62104 29.038C7.62104 28.9769 7.45944 28.9272 7.26004 28.9272C7.06051 28.9272 6.8988 28.9769 6.8988 29.038C6.8988 29.0992 7.06051 29.1489 7.26004 29.1489Z" fill="#F2C618"/>
<path fill-rule="evenodd" clip-rule="evenodd" d="M5.30233 27.3602C5.50171 27.3602 5.66345 27.3106 5.66345 27.2494C5.66345 27.1882 5.50171 27.1387 5.30233 27.1387C5.10295 27.1387 4.94118 27.1881 4.94118 27.2494C4.94118 27.3106 5.10293 27.3602 5.30233 27.3602Z" fill="#F2C618"/>
<path fill-rule="evenodd" clip-rule="evenodd" d="M4.04782 24.6171C4.24723 24.6171 4.40895 24.5674 4.40895 24.5064C4.40895 24.4452 4.24723 24.3955 4.04782 24.3955C3.84842 24.3955 3.68658 24.4452 3.68658 24.5064C3.68658 24.5674 3.84833 24.6171 4.04782 24.6171Z" fill="#F2C618"/>
<path fill-rule="evenodd" clip-rule="evenodd" d="M6.44406 25.3167C6.50287 25.3167 6.55838 25.3124 6.60745 25.3047C6.59413 25.2375 6.5812 25.1697 6.5686 25.102C6.52985 25.0976 6.48777 25.0952 6.44406 25.0952C6.24466 25.0952 6.08294 25.1449 6.08294 25.2061C6.08294 25.2672 6.24465 25.3168 6.44406 25.3168V25.3167Z" fill="#F2C618"/>
<path fill-rule="evenodd" clip-rule="evenodd" d="M6.31914 22.9663C6.14577 22.9744 6.01293 23.0205 6.01293 23.076C6.01293 23.1328 6.15244 23.1796 6.33235 23.1859C6.32772 23.113 6.32262 23.0399 6.31914 22.9664V22.9663Z" fill="#F2C618"/>
<path fill-rule="evenodd" clip-rule="evenodd" d="M5.21976 25.7751C5.41926 25.7751 5.58089 25.7373 5.58089 25.6907C5.58089 25.644 5.41926 25.6064 5.21976 25.6064C5.02027 25.6064 4.85864 25.6443 4.85864 25.6907C4.85864 25.7373 5.02035 25.7751 5.21976 25.7751Z" fill="#F2C618"/>
<path fill-rule="evenodd" clip-rule="evenodd" d="M6.79861 26.147C6.72612 26.1624 6.68061 26.1846 6.68061 26.2094C6.68061 26.2378 6.74121 26.263 6.83402 26.2783C6.82237 26.2344 6.8099 26.191 6.79861 26.147Z" fill="#F2C618"/>
<path fill-rule="evenodd" clip-rule="evenodd" d="M6.99398 27.1025C7.02261 27.1025 7.05029 27.1014 7.07703 27.0995C7.05327 27.0268 7.02927 26.954 7.0067 26.8809H6.99398C6.79445 26.8809 6.63286 26.9305 6.63286 26.9916C6.63286 27.0528 6.79445 27.1025 6.99398 27.1025Z" fill="#F2C618"/>
<path fill-rule="evenodd" clip-rule="evenodd" d="M6.18533 24.1922C6.27623 24.1922 6.35931 24.1818 6.42277 24.1649C6.4155 24.1078 6.40968 24.0504 6.40303 23.993C6.34255 23.9791 6.26708 23.9707 6.18522 23.9707C5.98581 23.9707 5.8241 24.0204 5.8241 24.0815C5.8241 24.1428 5.98581 24.1923 6.18522 24.1923L6.18533 24.1922Z" fill="#F2C618"/>
<path fill-rule="evenodd" clip-rule="evenodd" d="M4.2276 22.4037C4.42713 22.4037 4.58872 22.3541 4.58872 22.2929C4.58872 22.2318 4.42713 22.1821 4.2276 22.1821C4.02822 22.1821 3.86648 22.2318 3.86648 22.2929C3.86648 22.3541 4.02822 22.4037 4.2276 22.4037Z" fill="#F2C618"/>
</g>
<defs>
<clipPath id="clip0_14_43">
<rect width="44.3641" height="44.3641" fill="white"/>
</clipPath>
</defs>
</svg>
