<svg width="17" height="17" viewBox="0 0 17 17" fill="none" xmlns="http://www.w3.org/2000/svg">
<g id="Group 21">
<path id="Vector" d="M8.33333 0C3.73833 0 0 3.73833 0 8.33333C0 12.9283 3.73833 16.6667 8.33333 16.6667C12.9283 16.6667 16.6667 12.9283 16.6667 8.33333C16.6667 3.73833 12.9283 0 8.33333 0ZM8.33333 15C4.6575 15 1.66667 12.0092 1.66667 8.33333C1.66667 4.6575 4.6575 1.66667 8.33333 1.66667C12.0092 1.66667 15 4.6575 15 8.33333C15 12.0092 12.0092 15 8.33333 15Z" fill="#F2C618"/>
<path id="Vector_2" d="M6.75916 9.36174L4.84333 7.44924L3.66666 8.62924L6.76083 11.7167L12.3492 6.12841L11.1708 4.95007L6.75916 9.36174Z" fill="#F2C618"/>
</g>
</svg>
