<svg width="16" height="18" viewBox="0 0 16 18" fill="none" xmlns="http://www.w3.org/2000/svg">
<path d="M1.89782 4.0467C1.90263 3.96404 1.89111 3.88125 1.86392 3.80305C1.83674 3.72485 1.79441 3.65277 1.73937 3.59093C1.68432 3.52908 1.61764 3.47868 1.54312 3.44261C1.4686 3.40654 1.3877 3.3855 1.30505 3.38069C1.2224 3.37588 1.13961 3.38739 1.0614 3.41458C0.983203 3.44177 0.911122 3.48409 0.849277 3.53913C0.787432 3.59418 0.737035 3.66086 0.700962 3.73538C0.664889 3.80991 0.643847 3.8908 0.639038 3.97345L1.89782 4.0467ZM3.06516 0.936155C2.94181 1.04503 2.86592 1.1978 2.85368 1.36187C2.84144 1.52593 2.89383 1.68828 2.99965 1.81425C3.10548 1.94021 3.25636 2.01982 3.42007 2.03606C3.58379 2.0523 3.74737 2.00389 3.87588 1.90118L3.06516 0.936155ZM6.45876 15.4603C6.52336 15.513 6.59778 15.5524 6.67771 15.5762C6.75764 15.6 6.8415 15.6076 6.92442 15.5988C7.00733 15.5899 7.08767 15.5647 7.16077 15.5245C7.23386 15.4844 7.29827 15.4302 7.35026 15.365C7.40225 15.2998 7.44079 15.2249 7.46364 15.1447C7.48649 15.0645 7.4932 14.9806 7.48339 14.8978C7.47357 14.815 7.44742 14.7349 7.40645 14.6623C7.36548 14.5896 7.31051 14.5259 7.24472 14.4746L6.45876 15.4603ZM10.1515 16.0842C9.99265 16.0319 9.81949 16.0448 9.67016 16.1202C9.52082 16.1955 9.40752 16.3271 9.3552 16.486C9.30287 16.6448 9.3158 16.818 9.39114 16.9673C9.46649 17.1167 9.59807 17.23 9.75694 17.2823L10.1515 16.0842ZM11.0204 12.3641L11.4456 12.006L10.634 11.0408L10.2089 11.399L11.0204 12.3641ZM12.7166 11.9782L14.2084 13.0766L14.9563 12.0613L13.4636 10.9628L12.7166 11.9782ZM14.3022 15.0156L12.9747 16.1306L13.7862 17.0966L15.1129 15.9807L14.3022 15.0156ZM4.89598 12.0254C2.0425 8.2523 1.82345 5.3155 1.89782 4.0467L0.639038 3.97345C0.548556 5.52802 0.847462 8.76223 3.89093 12.7859L4.89598 12.0254ZM6.66949 6.61146L6.93677 6.38612L6.12604 5.4211L5.85793 5.64634L6.66949 6.61146ZM7.47918 3.26695L6.59367 1.65915L5.48907 2.26723L6.37374 3.87494L7.47918 3.26695ZM6.26292 6.12839C6.12892 5.96659 5.99333 5.80611 5.85616 5.64699L5.85431 5.64847L5.85152 5.65069L5.8043 5.69443C5.71031 5.79365 5.63199 5.90662 5.57204 6.02944C5.46432 6.24991 5.38665 6.54904 5.39908 6.93444C5.42376 7.69168 5.79959 8.74813 6.92363 10.2356L7.92961 9.47434C6.87828 8.08469 6.67128 7.279 6.65905 6.89194C6.65301 6.70518 6.69056 6.61214 6.7049 6.58246L6.71336 6.56734L6.6865 6.59561L6.66949 6.61146L6.26292 6.12839ZM6.92373 10.2348C8.0449 11.7177 8.94615 12.3521 9.66519 12.554C10.035 12.6574 10.3454 12.6425 10.5862 12.5774C10.7199 12.542 10.847 12.4849 10.9622 12.4083L10.9946 12.3832L11.0076 12.3728L11.014 12.3684L11.0168 12.3662L11.0178 12.3646C11.0178 12.3646 11.0196 12.364 10.6139 11.881C10.208 11.3989 10.209 11.3981 10.2091 11.3973L10.2108 11.3966L10.2128 11.3943L10.2183 11.3907L10.2615 11.36C10.2698 11.3565 10.2683 11.3566 10.2572 11.3604C10.2397 11.3652 10.1616 11.3835 10.0058 11.3397C9.67622 11.2468 8.98455 10.8695 7.92961 9.47434L6.92373 10.2348ZM6.59367 1.65915C5.88163 0.366066 4.21066 -0.0276375 3.06516 0.936155L3.87588 1.90118C4.36443 1.491 5.12963 1.61354 5.48907 2.26723L6.59367 1.65915ZM12.9747 16.1306C12.714 16.3499 12.4561 16.4545 12.2163 16.4512L12.1987 17.7112C12.8295 17.7205 13.3722 17.445 13.7862 17.0966L12.9747 16.1306ZM6.93677 6.38612C7.8411 5.62608 8.04782 4.30113 7.47918 3.26695L6.37458 3.87503C6.67089 4.41335 6.54173 5.07207 6.12604 5.4211L6.93677 6.38612ZM14.2084 13.0766C14.8496 13.5489 14.8748 14.5346 14.3022 15.0156L15.1129 15.9807C16.3321 14.9558 16.2309 12.9999 14.9563 12.0613L14.2084 13.0766ZM11.4456 12.006C11.8053 11.7031 12.3159 11.6836 12.7166 11.9782L13.4636 10.9628C12.6051 10.3316 11.4514 10.3547 10.634 11.0408L11.4456 12.006ZM7.24472 14.4746C6.48182 13.866 5.68598 13.0693 4.89598 12.0254L3.89093 12.7859C4.7405 13.9093 5.60891 14.7827 6.45876 15.4603L7.24472 14.4746ZM12.2154 16.4511C11.5129 16.4335 10.8171 16.3098 10.1515 16.0842L9.75694 17.2823C10.5446 17.5476 11.3678 17.6922 12.1987 17.7112L12.2154 16.4511Z" fill="#F2C618"/>
</svg>
