<svg width="40" height="40" viewBox="0 0 40 40" fill="none" xmlns="http://www.w3.org/2000/svg">
<path fill-rule="evenodd" clip-rule="evenodd" d="M36.08 0H18.88C17.84 0 16.56 1.6 16.48 2.32V16C16.48 16.72 18.4 18.56 18.96 18.56H24.88C25.44 19.2 26.64 21.68 27.52 21.68C28.4 21.68 30.08 18.72 30.32 18.56H36.16C37.04 18.56 38.8 16.56 38.8 15.76V2.56C38.8 1.52 36.64 0 36.08 0ZM35.6 2C35.84 2 36.88 2.24 36.88 2.8V15.52C36.64 15.68 36.24 16.56 35.68 16.56H29.6C28.88 17.04 28.24 18 27.84 18.8H27.36C27.04 18.16 25.92 16.56 25.52 16.56H19.44C19.04 16.32 18.32 15.84 18.32 15.44V2.88C18.4 2.32 18.88 1.92 19.36 2H35.6ZM31.6 8.72C31.6 9.76 32.4 10.56 33.44 10.56C34.48 10.56 35.28 9.76 35.28 8.72C35.28 7.68 34.48 6.8 33.44 6.8C32.4 6.8 31.6 7.68 31.6 8.72ZM25.92 8.72C25.92 9.76 26.72 10.56 27.76 10.56C28.8 10.56 29.6 9.76 29.6 8.72C29.6 7.68 28.8 6.8 27.76 6.8C26.72 6.8 25.92 7.68 25.92 8.72ZM20.24 8.72C20.24 9.76 21.04 10.56 22.08 10.56C23.12 10.56 23.92 9.76 23.92 8.72C23.92 7.68 23.12 6.8 22.08 6.8C21.04 6.8 20.24 7.68 20.24 8.72ZM10.72 6.24H3.03998C1.99998 6.24 0.799979 7.6 0.399979 8.64V13.6C0.399979 13.76 0.559979 15.52 0.799979 16.4C0.959979 17.36 1.19998 18.56 1.43998 19.52C1.83998 20.64 2.39998 21.84 2.71998 22.96C4.55998 28.32 11.68 35.68 16.88 37.6C17.68 37.84 18.56 38.32 19.36 38.56C20.48 38.88 21.68 39.28 22.72 39.44C23.76 39.6 24.72 39.84 25.6 40H30.4C31.2 40 32.72 37.6 32.8 37.36V28.72C32.8 28 30 27.68 29.92 27.68C29.12 27.6 28.16 27.36 27.44 27.2C26.64 27.12 25.84 26.88 25.04 26.72C24.16 26.56 22.64 26.32 22.48 26.32C21.6 26.32 19.84 29.36 19.2 29.36C18.32 29.36 13.84 25.28 13.68 25.2C12.64 24 11.6 22.56 11.04 21.52C10.88 21.04 10.64 20.56 10.64 20.32C10.64 19.28 13.52 18 13.52 16.96C13.52 16.64 12.4 10.8 11.84 7.76C11.76 7.28 11.52 5.92 10.72 6.24ZM10.08 8.16L11.44 16.24C11.28 17.28 8.31998 19.04 8.31998 19.92C8.31998 20.16 8.79998 21.2 9.03998 21.68C9.43998 22.8 10.4 24.16 11.44 25.44C12 26.24 12.88 27.12 13.68 27.84C13.68 27.92 18.8 31.84 19.6 31.84C19.92 31.84 21.04 30.32 21.28 30.16C21.6 29.76 22.32 28.4 23.12 28.56L30.88 29.92V36.72C30.88 38.08 29.04 38 28.24 38C18.96 38 8.39998 33.28 3.75998 20.48C3.51998 19.52 3.19998 18.64 2.95998 17.76C2.63998 16.32 2.39998 13.6 2.39998 13.44V8.88C2.47998 8.48 3.03998 8.16 3.51998 8.16H10.08Z" fill="white"/>
</svg>
