<svg width="19" height="19" viewBox="0 0 19 19" fill="none" xmlns="http://www.w3.org/2000/svg">
<path d="M16.2515 3.12012H2.25153C1.98631 3.12012 1.73196 3.22547 1.54442 3.41301C1.35688 3.60055 1.25153 3.8549 1.25153 4.12012V14.1201C1.25153 14.3853 1.35688 14.6397 1.54442 14.8272C1.73196 15.0148 1.98631 15.1201 2.25153 15.1201H16.2515C16.5167 15.1201 16.7711 15.0148 16.9586 14.8272C17.1462 14.6397 17.2515 14.3853 17.2515 14.1201V4.12012C17.2515 3.8549 17.1462 3.60055 16.9586 3.41301C16.7711 3.22547 16.5167 3.12012 16.2515 3.12012ZM15.4815 14.1201H3.08153L6.58153 10.5001L5.86153 9.80512L2.25153 13.5401V4.88012L8.46653 11.0651C8.65389 11.2514 8.90734 11.3559 9.17153 11.3559C9.43571 11.3559 9.68916 11.2514 9.87653 11.0651L16.2515 4.72512V13.4751L12.5715 9.79512L11.8665 10.5001L15.4815 14.1201ZM2.90653 4.12012H15.4415L9.17153 10.3551L2.90653 4.12012Z" fill="#F2C618"/>
</svg>
