<svg width="22" height="20" viewBox="0 0 22 20" fill="none" xmlns="http://www.w3.org/2000/svg">
<path d="M16.2337 0.22168H6.06624C3.25731 0.22168 0.972168 2.50749 0.972168 5.31725V14.6217C0.972168 17.4315 3.25731 19.7173 6.06624 19.7173H16.2337C19.0426 19.7173 21.3277 17.4315 21.3277 14.6217V5.31725C21.3277 2.50749 19.0426 0.22168 16.2337 0.22168ZM2.7692 5.31725C2.7692 3.49897 4.24849 2.01923 6.06624 2.01923H16.2337C18.0514 2.01923 19.5307 3.49897 19.5307 5.31725V14.6217C19.5307 16.44 18.0514 17.9197 16.2337 17.9197H6.06624C4.24849 17.9197 2.7692 16.44 2.7692 14.6217V5.31725Z" fill="white"/>
<path d="M11.1496 14.7085C13.7617 14.7085 15.888 12.5827 15.888 9.96875C15.888 7.35475 13.7629 5.229 11.1496 5.229C8.53639 5.229 6.41127 7.35475 6.41127 9.96875C6.41127 12.5827 8.53639 14.7085 11.1496 14.7085ZM11.1496 7.02771C12.7717 7.02771 14.0909 8.34738 14.0909 9.9699C14.0909 11.5924 12.7717 12.9121 11.1496 12.9121C9.52758 12.9121 8.2083 11.5924 8.2083 9.9699C8.2083 8.34738 9.52758 7.02771 11.1496 7.02771Z" fill="white"/>
<path d="M16.3266 5.99456C17.03 5.99456 17.6033 5.42224 17.6033 4.71749C17.6033 4.01275 17.0311 3.44043 16.3266 3.44043C15.6221 3.44043 15.0499 4.01275 15.0499 4.71749C15.0499 5.42224 15.6221 5.99456 16.3266 5.99456Z" fill="white"/>
</svg>
