<svg width="18" height="18" viewBox="0 0 18 18" fill="none" xmlns="http://www.w3.org/2000/svg">
<path d="M14.0515 12.936C14.9635 12.8568 15.5891 12.6776 16.0819 12.2736C16.2441 12.1403 16.3918 11.9925 16.5251 11.8304C17.2515 10.944 17.2515 9.6304 17.2515 7C17.2515 4.3704 17.2515 3.0552 16.5251 2.1696C16.3923 2.00772 16.2438 1.85927 16.0819 1.7264C15.1955 1 13.8819 1 11.2515 1H7.25153C4.62193 1 3.30673 1 2.42113 1.7264C2.25925 1.85927 2.1108 2.00772 1.97793 2.1696C1.25153 3.056 1.25153 4.3696 1.25153 7C1.25153 9.6296 1.25153 10.9448 1.97793 11.8304C2.1108 11.9923 2.25925 12.1407 2.42113 12.2736C2.91393 12.6776 3.53953 12.8576 4.45153 12.9368M16.0515 11.8L10.8515 7.8M10.8515 7.8L16.0515 2.2M10.8515 7.8L7.25153 5.2288M2.45153 1.8L4.85153 3.5144" stroke="#F2C618" stroke-width="1.2" stroke-linecap="round"/>
<path d="M11.8651 14.7601L10.7971 12.6241C10.1227 11.2745 9.78592 10.6001 9.25152 10.6001C8.71712 10.6001 8.38032 11.2745 7.70592 12.6241L6.63792 14.7601C6.22832 15.5793 6.02352 15.9897 6.05392 16.2473C6.09952 16.6193 6.37952 16.9209 6.74832 16.9913C7.00272 17.0409 7.42592 16.8657 8.27232 16.5153C8.58432 16.3857 8.74192 16.3209 8.90192 16.2881C9.13232 16.2401 9.37072 16.2401 9.60112 16.2881C9.76112 16.3209 9.91792 16.3857 10.2307 16.5153C11.0771 16.8657 11.4995 17.0409 11.7547 16.9921C12.1227 16.9201 12.4027 16.6201 12.4483 16.2473C12.4803 15.9889 12.2747 15.5785 11.8651 14.7601Z" stroke="#F2C618" stroke-width="1.2"/>
</svg>
