<svg width="18" height="20" viewBox="0 0 18 20" fill="none" xmlns="http://www.w3.org/2000/svg">
<path d="M17.419 4.88096V8.28204C16.8248 8.22399 16.0527 8.08896 15.1986 7.77598C14.0833 7.3671 13.2531 6.80803 12.7094 6.37516V13.2493L12.6955 13.2278C12.7043 13.3641 12.7094 13.5029 12.7094 13.643C12.7094 17.0567 9.93252 19.8356 6.51856 19.8356C3.1046 19.8356 0.327759 17.0567 0.327759 13.643C0.327759 10.2293 3.1046 7.44912 6.51856 7.44912C6.85289 7.44912 7.18092 7.47562 7.50137 7.52737V10.8792C7.19354 10.7694 6.86299 10.7101 6.51856 10.7101C4.90242 10.7101 3.58654 12.0251 3.58654 13.643C3.58654 15.2609 4.90242 16.5759 6.51856 16.5759C8.13471 16.5759 9.45058 15.2596 9.45058 13.643C9.45058 13.5824 9.44932 13.5219 9.44554 13.4613V0.103027H12.8431C12.8557 0.390763 12.8671 0.681028 12.8797 0.968764C12.9024 1.5354 13.1043 2.07932 13.4562 2.5248C13.8688 3.04853 14.4782 3.65682 15.3335 4.14269C16.1347 4.59574 16.8866 4.79135 17.419 4.88348V4.88096Z" fill="white"/>
</svg>
